<svg xmlns="http://www.w3.org/2000/svg" viewBox="0 0 64 64" width="64" height="64" fill="none">
  <g fill="none" stroke="currentColor" stroke-width="2" stroke-linecap="round" stroke-linejoin="round">
    <path d="M32 8c-6 0-11 5-11 11 0 5 3 9 6 11v4c0 2 2 4 5 4h4c3 0 5-2 5-4v-4c3-2 6-6 6-11 0-6-5-11-11-11z" opacity="0.06" fill="currentColor"/>
    <path d="M24 38c0 4 4 8 8 8s8-4 8-8"/>
    <circle cx="32" cy="24" r="6"/>
    <path d="M32 18v-4"/>
    <path d="M28 20l-2-2"/>
    <path d="M36 20l2-2"/>
    <!-- small gear teeth inside the bulb -->
    <path d="M32 24a3 3 0 1 0 0 6 3 3 0 0 0 0-6z"/>
    <path d="M32 21v-2M29 22l-1-1M35 22l1-1M29 26l-1 1M35 26l1 1M32 29v2"/>
  </g>
</svg>
