<svg xmlns="http://www.w3.org/2000/svg" viewBox="0 0 64 64" width="64" height="64" fill="none">
  <g fill="currentColor">
    <circle cx="20" cy="20" r="6" opacity="0.98" />
    <circle cx="44" cy="20" r="6" opacity="0.98" />
    <path d="M10 44c0-6 6-10 14-10s14 4 14 10v2H10v-2z" opacity="0.9" />
    <path d="M34 44c0-6 6-10 14-10s14 4 14 10v2H34v-2z" opacity="0.9" transform="translate(-12,0) scale(0.8)" />
    <path d="M32 30c-3 0-6-2-6-5s3-5 6-5 6 2 6 5-3 5-6 5z" opacity="0.12" />
  </g>
</svg>
